<?xml version="1.0" standalone="no"?>
<!DOCTYPE svg PUBLIC "-//W3C//DTD SVG 20010904//EN"
 "http://www.w3.org/TR/2001/REC-SVG-20010904/DTD/svg10.dtd">
<svg version="1.0" xmlns="http://www.w3.org/2000/svg"
 width="30px" height="30px" viewBox="0 0 1600.000000 1600.000000"
 preserveAspectRatio="xMidYMid meet">

<g transform="translate(0.000000,1600.000000) scale(0.100000,-0.100000)"
fill="#5662f6" stroke="none">
<path d="M5985 13773 c-190 -14 -659 -87 -910 -143 -966 -214 -1730 -540
-2342 -999 -126 -94 -181 -149 -271 -270 -281 -378 -705 -1363 -1017 -2361
-464 -1485 -736 -2955 -796 -4305 -6 -137 -9 -324 -7 -415 4 -191 3 -188 132
-385 339 -515 912 -970 1643 -1304 664 -303 1461 -527 2106 -592 222 -22 324
-1 404 83 17 18 205 274 418 568 212 294 392 534 398 534 7 -1 98 -20 202 -42
1137 -243 2449 -267 3633 -66 176 29 512 96 549 109 7 2 178 -225 400 -533
214 -295 400 -551 415 -567 15 -17 51 -44 80 -61 52 -29 55 -29 198 -28 265 2
737 85 1165 206 836 235 1539 573 2070 995 141 112 388 358 495 493 101 127
212 294 251 375 l29 60 0 235 c0 1534 -419 3664 -1059 5394 -211 570 -465
1134 -641 1426 -129 214 -230 331 -393 454 -745 562 -1840 964 -3042 1116
-257 33 -307 32 -388 -8 -74 -37 -105 -69 -147 -153 -41 -80 -113 -293 -151
-446 -17 -70 -32 -129 -33 -130 -2 -2 -76 8 -167 22 -483 71 -837 99 -1274 99
-425 0 -782 -28 -1269 -99 -94 -13 -170 -23 -171 -22 -1 1 -11 47 -24 102 -29
123 -108 367 -148 455 -40 88 -82 134 -156 169 -63 30 -110 39 -182 34z m-150
-766 c32 -105 32 -115 -2 -123 -90 -19 -432 -112 -573 -156 -501 -153 -1029
-380 -1440 -618 -69 -40 -153 -89 -188 -108 -78 -45 -126 -92 -160 -157 -23
-43 -27 -62 -27 -135 0 -73 4 -92 28 -137 33 -63 83 -115 140 -145 35 -19 58
-23 137 -23 109 0 98 -4 310 124 770 466 1876 805 3030 930 352 38 493 46 845
46 338 0 507 -9 805 -41 837 -90 1590 -270 2280 -546 211 -84 631 -290 790
-387 193 -118 223 -131 311 -131 64 0 85 5 137 30 107 54 163 139 170 260 8
145 -47 231 -208 324 -380 219 -561 311 -855 439 -371 160 -883 328 -1302 427
-29 6 -53 17 -53 22 0 12 37 138 50 174 8 21 9 21 112 7 932 -125 1795 -418
2391 -810 181 -119 249 -176 309 -259 297 -414 614 -1141 927 -2126 465 -1465
739 -2959 791 -4306 l10 -263 -49 -73 c-448 -663 -1355 -1197 -2516 -1481
-270 -66 -639 -131 -699 -123 -20 2 -79 76 -291 362 l-266 360 168 58 c636
220 1217 514 1663 841 124 91 176 141 208 202 23 43 27 62 27 135 0 73 -4 93
-28 142 -32 65 -90 121 -156 151 -35 16 -66 22 -126 22 -101 0 -139 -17 -259
-114 -249 -203 -687 -450 -1106 -626 -298 -125 -811 -295 -890 -295 -63 0
-135 -19 -182 -49 -81 -51 -585 -148 -1043 -201 -606 -69 -1369 -79 -1965 -25
-502 46 -1178 164 -1326 232 -40 18 -83 28 -148 33 -177 15 -695 199 -1138
405 -347 162 -719 386 -913 550 -88 74 -127 90 -230 90 -79 0 -97 -4 -142 -27
-64 -34 -115 -86 -145 -147 -19 -38 -23 -62 -23 -136 0 -141 36 -194 219 -329
446 -329 1027 -624 1676 -851 91 -32 167 -59 169 -61 2 -1 -117 -166 -265
-365 l-268 -361 -67 6 c-186 17 -559 93 -842 171 -1076 296 -1900 804 -2327
1434 l-43 63 6 247 c31 1172 285 2644 689 3996 328 1101 658 1901 983 2390 87
130 105 150 199 220 597 441 1478 764 2486 909 85 13 158 21 162 19 4 -2 19
-41 33 -86z"/>
<path d="M5675 9315 c-593 -95 -1064 -585 -1197 -1247 -31 -153 -33 -470 -4
-623 116 -622 529 -1099 1074 -1240 268 -70 555 -51 821 56 317 127 610 415
768 756 293 633 175 1397 -291 1880 -212 220 -441 350 -721 408 -111 23 -337
28 -450 10z m359 -635 c223 -57 411 -219 526 -455 300 -613 -50 -1390 -645
-1432 -113 -8 -226 16 -340 72 -245 120 -413 351 -475 655 -31 148 -24 380 14
518 77 277 259 505 480 603 135 59 302 74 440 39z"/>
<path d="M9860 9323 c-87 -9 -244 -48 -337 -84 -454 -177 -806 -619 -913
-1149 -41 -203 -41 -488 -1 -687 113 -550 477 -994 959 -1167 264 -95 600 -95
864 0 356 128 648 400 823 768 130 273 181 541 163 861 -33 586 -392 1133
-888 1351 -208 91 -449 130 -670 107z m285 -638 c278 -59 529 -326 615 -654
65 -247 41 -524 -66 -750 -106 -226 -275 -383 -489 -457 -71 -25 -94 -28 -205
-28 -111 0 -134 3 -205 28 -108 37 -202 94 -287 174 -298 282 -389 768 -219
1179 77 188 236 364 403 447 52 25 123 53 159 60 85 19 208 19 294 1z"/>
</g>
</svg>
