<?xml version="1.0" standalone="no"?>
<!DOCTYPE svg PUBLIC "-//W3C//DTD SVG 20010904//EN"
 "http://www.w3.org/TR/2001/REC-SVG-20010904/DTD/svg10.dtd">
<svg version="1.0" xmlns="http://www.w3.org/2000/svg"
 width="30px" height="30px" viewBox="0 0 512.000000 512.000000"
 preserveAspectRatio="xMidYMid meet">

<g transform="translate(0.000000,512.000000) scale(0.100000,-0.100000)"
fill="#191f48" stroke="none">
<path d="M2340 5110 c-588 -57 -1124 -304 -1549 -715 -221 -214 -394 -450
-526 -720 -170 -346 -248 -663 -262 -1060 -7 -215 -3 -228 79 -267 29 -14 272
-125 540 -247 343 -155 498 -221 523 -221 30 0 47 11 116 75 91 85 157 127
244 154 90 28 171 34 261 20 112 -18 149 -16 175 6 12 11 157 197 322 414
l300 394 2 156 c2 131 5 167 24 226 82 252 259 426 506 497 64 18 106 22 210
22 155 1 218 -14 354 -80 165 -81 296 -235 358 -419 25 -73 27 -93 28 -240 0
-178 -10 -225 -71 -348 -119 -239 -344 -383 -621 -400 -46 -2 -89 -9 -95 -14
-89 -68 -869 -712 -884 -730 -18 -21 -22 -43 -27 -136 -10 -195 -57 -315 -169
-432 -109 -115 -230 -174 -396 -196 -339 -43 -638 177 -701 516 -6 32 -18 69
-27 83 -18 27 -770 402 -807 402 -37 0 -84 -36 -96 -73 -11 -32 -8 -46 25
-134 49 -131 158 -344 242 -473 192 -294 479 -575 792 -774 114 -73 381 -200
515 -246 435 -149 870 -184 1300 -105 1087 200 1921 1086 2077 2205 19 142 17
527 -5 664 -69 433 -216 795 -457 1127 -260 358 -566 617 -955 809 -260 128
-487 200 -758 241 -153 23 -447 32 -587 19z m415 -211 c312 -26 571 -97 850
-233 707 -347 1165 -988 1287 -1801 8 -57 13 -176 12 -325 0 -253 -15 -375
-68 -580 -218 -839 -881 -1483 -1731 -1683 -202 -48 -323 -61 -555 -61 -223
-1 -345 12 -530 55 -569 132 -1072 480 -1400 969 -56 84 -141 229 -153 262 -4
11 58 -14 191 -78 108 -52 202 -100 208 -107 7 -7 19 -39 29 -71 48 -169 184
-353 337 -457 149 -101 302 -151 473 -152 126 -1 198 12 305 56 304 124 516
409 546 735 l7 72 390 321 390 321 68 9 c152 19 318 84 443 173 68 49 196 178
243 246 183 267 216 619 85 912 -68 150 -207 317 -341 407 -84 57 -212 117
-308 143 -115 32 -335 32 -452 0 -283 -77 -523 -280 -646 -545 -55 -119 -76
-207 -82 -351 l-6 -129 -256 -334 -256 -334 -145 -3 c-113 -3 -161 -8 -219
-25 -102 -30 -203 -81 -289 -146 l-72 -54 -447 204 -448 203 2 129 c6 327 85
643 238 958 227 467 593 833 1060 1060 173 84 301 131 476 174 252 61 505 81
764 60z"/>
<path d="M3240 3619 c-111 -16 -201 -61 -289 -143 -226 -212 -232 -534 -14
-752 111 -110 273 -174 409 -160 253 26 464 236 490 488 9 87 -9 169 -56 265
-102 207 -327 333 -540 302z m226 -242 c107 -54 160 -153 158 -292 -1 -98 -27
-164 -87 -223 -62 -61 -125 -85 -222 -86 -97 -1 -166 20 -224 70 -64 55 -94
122 -99 224 -5 99 6 149 48 212 62 93 143 130 280 125 79 -3 104 -8 146 -30z"/>
<path d="M1724 2015 c-42 -18 -64 -51 -64 -98 0 -53 39 -91 108 -106 158 -33
253 -153 254 -317 1 -108 -39 -188 -124 -250 -53 -39 -149 -74 -204 -74 -50 0
-123 28 -179 68 -69 50 -124 51 -166 4 -54 -60 -36 -123 54 -182 89 -60 180
-85 307 -85 128 0 211 25 299 90 183 135 269 394 197 596 -56 160 -200 301
-351 343 -85 24 -99 25 -131 11z"/>
</g>
</svg>
